<svg id="Layer_1" data-name="Layer 1" xmlns="http://www.w3.org/2000/svg" viewBox="0 0 175 47.26"><defs><style>.cls-1{font-size:26.8px;font-family:GendyRegular, Gendy;}.cls-1,.cls-2{fill:#fff;}</style></defs><text class="cls-1" transform="translate(49.4 29.19)">edusetin</text><path class="cls-2" d="M15.77,28.27c.41,0,.68-.06.95-.06,7.83,0,15.67,0,23.5,0a9.28,9.28,0,0,1,9.32,8.14c.14,1,.06,1.12-1,1.12-7.48,0-14.95,0-22.42,0a2.89,2.89,0,0,1-2.24-1c-2.53-2.6-5.12-5.15-7.68-7.73C16.1,28.7,16,28.54,15.77,28.27Z"/><path class="cls-2" d="M48.06,5.62c-7.53,0-15.06,0-22.59,0a2,2,0,0,0-1.3.56C21.55,8.77,19,11.37,16.38,14c-.17.17-.33.36-.61.67.41,0,.65.08.88.08l13.25,0L26.11,9c.52-.24,2.21.77,2.21.77l4.6,4.91c2.29,0,4.57,0,6.85,0a9.08,9.08,0,0,0,9.14-8.06C49,5.74,48.94,5.62,48.06,5.62Z"/><path class="cls-2" d="M33.62,16.78H33l-5.31,5a3.15,3.15,0,0,1-2.57.91l4.52-6q-6.27,0-12.55,0c-.57,0-.8.16-.8.77q0,3.93,0,7.88c0,.7.24.92.93.91,2.76,0,5.52,0,8.29,0v0h8a4.75,4.75,0,1,0,0-9.5Z"/></svg>